<svg xmlns="http://www.w3.org/2000/svg" width="200" height="21" viewBox="0 0 200 21" fill="none">
  <path d="M7.77297 14.5476H8.16897V0.599609H11.073V15.9996H5.39697L3.59297 2.05161H3.19697V15.9996H0.292969V0.599609H5.96897L7.77297 14.5476Z" fill="white"/>
  <path d="M14.3577 0.599609H24.2137V3.37161H17.2617V6.89161H24.0817V9.66361H17.2617V15.9996H14.3577V0.599609Z" fill="white"/>
  <path d="M27.0804 0.599609H38.1684V3.37161H34.0764V15.9996H31.1724V3.37161H27.0804V0.599609Z" fill="white"/>
  <path d="M53.3178 0.599609H58.4218L59.3018 12.1716V14.4156H59.8298V12.1716L60.7098 0.599609H65.8138V15.9996H63.1738V5.70361L63.4378 2.18361H62.9098L61.7658 15.9996H57.4098L56.2218 2.18361H55.6938L55.9578 5.70361V15.9996H53.3178V0.599609Z" fill="white"/>
  <path d="M75.0825 14.4156C74.7891 15.1049 74.3785 15.5963 73.8505 15.8896C73.3225 16.1683 72.7065 16.3076 72.0025 16.3076C71.3425 16.3076 70.7192 16.1829 70.1325 15.9336C69.5605 15.6843 69.0545 15.3176 68.6145 14.8336C68.1745 14.3496 67.8225 13.7629 67.5585 13.0736C67.3091 12.3843 67.1845 11.5996 67.1845 10.7196V10.3676C67.1845 9.50228 67.3091 8.72494 67.5585 8.03561C67.8078 7.34628 68.1451 6.75961 68.5705 6.27561C68.9958 5.79161 69.4871 5.42494 70.0445 5.17561C70.6165 4.91161 71.2252 4.77961 71.8705 4.77961C72.6478 4.77961 73.2711 4.91161 73.7405 5.17561C74.2245 5.43961 74.6058 5.85028 74.8845 6.40761H75.2805V5.08761H78.0525V12.6996C78.0525 13.1396 78.2505 13.3596 78.6465 13.3596H79.0645V15.9996H77.1725C76.6738 15.9996 76.2632 15.8529 75.9405 15.5596C75.6325 15.2663 75.4785 14.8849 75.4785 14.4156H75.0825ZM72.6185 13.6676C73.4251 13.6676 74.0705 13.4036 74.5545 12.8756C75.0385 12.3329 75.2805 11.5996 75.2805 10.6756V10.4116C75.2805 9.48761 75.0385 8.76161 74.5545 8.23361C74.0705 7.69094 73.4251 7.41961 72.6185 7.41961C71.8118 7.41961 71.1665 7.69094 70.6825 8.23361C70.1985 8.76161 69.9565 9.48761 69.9565 10.4116V10.6756C69.9565 11.5996 70.1985 12.3329 70.6825 12.8756C71.1665 13.4036 71.8118 13.6676 72.6185 13.6676Z" fill="white"/>
  <path d="M80.9632 5.08761H85.5832V6.67161H85.9792C86.1845 6.07028 86.5292 5.60828 87.0132 5.28561C87.5118 4.94828 88.1059 4.77961 88.7952 4.77961C89.8805 4.77961 90.7532 5.12428 91.4132 5.81361C92.0732 6.48828 92.4032 7.52228 92.4032 8.91561V9.39961L89.5432 9.66361V9.35561C89.5432 8.75428 89.3892 8.27761 89.0812 7.92561C88.7732 7.55894 88.3112 7.37561 87.6952 7.37561C87.0792 7.37561 86.5952 7.58828 86.2432 8.01361C85.8912 8.43894 85.7152 9.04761 85.7152 9.83961V13.3596H88.2232V15.9996H80.6992V13.3596H82.9432V7.72761H80.9632V5.08761Z" fill="white"/>
  <path d="M98.6139 9.09161H99.1419L102.046 5.08761H105.082V5.21961L101.562 10.2136V10.6096L105.434 15.8676V15.9996H102.266L99.1419 11.7316H98.6139V15.9996H95.8419V0.599609H98.6139V9.09161Z" fill="white"/>
  <path d="M110.875 11.4456C110.889 11.7683 110.963 12.0689 111.095 12.3476C111.241 12.6116 111.432 12.8463 111.667 13.0516C111.916 13.2423 112.195 13.3963 112.503 13.5136C112.825 13.6163 113.163 13.6676 113.515 13.6676C114.204 13.6676 114.732 13.5503 115.099 13.3156C115.465 13.0663 115.729 12.7729 115.891 12.4356L118.267 13.7556C118.135 14.0343 117.951 14.3276 117.717 14.6356C117.482 14.9289 117.174 15.2003 116.793 15.4496C116.426 15.6989 115.971 15.9043 115.429 16.0656C114.901 16.2269 114.277 16.3076 113.559 16.3076C112.737 16.3076 111.989 16.1756 111.315 15.9116C110.64 15.6476 110.053 15.2663 109.555 14.7676C109.071 14.2689 108.689 13.6603 108.411 12.9416C108.147 12.2229 108.015 11.4089 108.015 10.4996V10.3676C108.015 9.53161 108.154 8.76894 108.433 8.07961C108.726 7.39028 109.122 6.80361 109.621 6.31961C110.119 5.83561 110.699 5.46161 111.359 5.19761C112.033 4.91894 112.752 4.77961 113.515 4.77961C114.453 4.77961 115.26 4.94828 115.935 5.28561C116.609 5.60828 117.167 6.02628 117.607 6.53961C118.047 7.03828 118.369 7.59561 118.575 8.21161C118.78 8.81294 118.883 9.39961 118.883 9.97161V11.4456H110.875ZM113.493 7.28761C112.789 7.28761 112.217 7.47094 111.777 7.83761C111.337 8.18961 111.051 8.60028 110.919 9.06961H116.067C115.979 8.55628 115.7 8.13094 115.231 7.79361C114.776 7.45628 114.197 7.28761 113.493 7.28761Z" fill="white"/>
  <path d="M121.595 5.08761H124.829V0.599609H127.601V5.08761H131.539V7.72761H127.601V12.6996C127.601 13.1396 127.799 13.3596 128.195 13.3596H131.143V15.9996H126.523C126.025 15.9996 125.614 15.8383 125.291 15.5156C124.983 15.1929 124.829 14.7823 124.829 14.2836V7.72761H121.595V5.08761Z" fill="white"/>
  <path d="M137.574 20.3996H134.802V5.08761H137.574V6.67161H137.97C138.263 6.07028 138.689 5.60828 139.246 5.28561C139.803 4.94828 140.515 4.77961 141.38 4.77961C142.025 4.77961 142.634 4.90428 143.206 5.15361C143.793 5.40294 144.299 5.76961 144.724 6.25361C145.164 6.72294 145.509 7.30228 145.758 7.99161C146.022 8.68094 146.154 9.46561 146.154 10.3456V10.7416C146.154 11.6363 146.029 12.4283 145.78 13.1176C145.531 13.8069 145.193 14.3936 144.768 14.8776C144.343 15.3469 143.837 15.7063 143.25 15.9556C142.678 16.1903 142.055 16.3076 141.38 16.3076C140.881 16.3076 140.449 16.2563 140.082 16.1536C139.715 16.0509 139.393 15.9116 139.114 15.7356C138.85 15.5596 138.623 15.3616 138.432 15.1416C138.256 14.9069 138.102 14.6649 137.97 14.4156H137.574V20.3996ZM140.478 13.6676C141.343 13.6676 142.04 13.4036 142.568 12.8756C143.111 12.3329 143.382 11.5996 143.382 10.6756V10.4116C143.382 9.48761 143.111 8.76161 142.568 8.23361C142.04 7.69094 141.343 7.41961 140.478 7.41961C139.613 7.41961 138.909 7.69828 138.366 8.25561C137.838 8.79828 137.574 9.51694 137.574 10.4116V10.6756C137.574 11.5703 137.838 12.2963 138.366 12.8536C138.909 13.3963 139.613 13.6676 140.478 13.6676Z" fill="white"/>
  <path d="M148.779 13.3596H152.607V3.23961H148.911V0.599609H155.379V13.3596H158.943V15.9996H148.779V13.3596Z" fill="white"/>
  <path d="M169.377 14.4156C169.084 15.1049 168.673 15.5963 168.145 15.8896C167.617 16.1683 167.001 16.3076 166.297 16.3076C165.637 16.3076 165.014 16.1829 164.427 15.9336C163.855 15.6843 163.349 15.3176 162.909 14.8336C162.469 14.3496 162.117 13.7629 161.853 13.0736C161.604 12.3843 161.479 11.5996 161.479 10.7196V10.3676C161.479 9.50228 161.604 8.72494 161.853 8.03561C162.103 7.34628 162.44 6.75961 162.865 6.27561C163.291 5.79161 163.782 5.42494 164.339 5.17561C164.911 4.91161 165.52 4.77961 166.165 4.77961C166.943 4.77961 167.566 4.91161 168.035 5.17561C168.519 5.43961 168.901 5.85028 169.179 6.40761H169.575V5.08761H172.347V12.6996C172.347 13.1396 172.545 13.3596 172.941 13.3596H173.359V15.9996H171.467C170.969 15.9996 170.558 15.8529 170.235 15.5596C169.927 15.2663 169.773 14.8849 169.773 14.4156H169.377ZM166.913 13.6676C167.72 13.6676 168.365 13.4036 168.849 12.8756C169.333 12.3329 169.575 11.5996 169.575 10.6756V10.4116C169.575 9.48761 169.333 8.76161 168.849 8.23361C168.365 7.69094 167.72 7.41961 166.913 7.41961C166.107 7.41961 165.461 7.69094 164.977 8.23361C164.493 8.76161 164.251 9.48761 164.251 10.4116V10.6756C164.251 11.5996 164.493 12.3329 164.977 12.8756C165.461 13.4036 166.107 13.6676 166.913 13.6676Z" fill="white"/>
  <path d="M186.434 11.9956C186.185 13.2863 185.591 14.3276 184.652 15.1196C183.728 15.9116 182.489 16.3076 180.934 16.3076C180.127 16.3076 179.372 16.1829 178.668 15.9336C177.979 15.6843 177.377 15.3249 176.864 14.8556C176.351 14.3863 175.947 13.8069 175.654 13.1176C175.361 12.4283 175.214 11.6436 175.214 10.7636V10.4996C175.214 9.61961 175.361 8.82761 175.654 8.12361C175.947 7.41961 176.351 6.81828 176.864 6.31961C177.392 5.82094 178.001 5.43961 178.69 5.17561C179.394 4.91161 180.142 4.77961 180.934 4.77961C182.459 4.77961 183.691 5.17561 184.63 5.96761C185.583 6.75961 186.185 7.80094 186.434 9.09161L183.706 9.79561C183.618 9.15028 183.339 8.59295 182.87 8.12361C182.401 7.65428 181.741 7.41961 180.89 7.41961C180.494 7.41961 180.12 7.49294 179.768 7.63961C179.416 7.78628 179.108 7.99894 178.844 8.27761C178.58 8.54161 178.367 8.87161 178.206 9.26761C178.059 9.64894 177.986 10.0816 177.986 10.5656V10.6976C177.986 11.1816 178.059 11.6143 178.206 11.9956C178.367 12.3623 178.58 12.6703 178.844 12.9196C179.108 13.1689 179.416 13.3596 179.768 13.4916C180.12 13.6089 180.494 13.6676 180.89 13.6676C181.741 13.6676 182.386 13.4549 182.826 13.0296C183.281 12.6043 183.574 12.0323 183.706 11.3136L186.434 11.9956Z" fill="white"/>
  <path d="M191.699 11.4456C191.713 11.7683 191.787 12.0689 191.919 12.3476C192.065 12.6116 192.256 12.8463 192.491 13.0516C192.74 13.2423 193.019 13.3963 193.327 13.5136C193.649 13.6163 193.987 13.6676 194.339 13.6676C195.028 13.6676 195.556 13.5503 195.923 13.3156C196.289 13.0663 196.553 12.7729 196.715 12.4356L199.091 13.7556C198.959 14.0343 198.775 14.3276 198.541 14.6356C198.306 14.9289 197.998 15.2003 197.617 15.4496C197.25 15.6989 196.795 15.9043 196.253 16.0656C195.725 16.2269 195.101 16.3076 194.383 16.3076C193.561 16.3076 192.813 16.1756 192.139 15.9116C191.464 15.6476 190.877 15.2663 190.379 14.7676C189.895 14.2689 189.513 13.6603 189.235 12.9416C188.971 12.2229 188.839 11.4089 188.839 10.4996V10.3676C188.839 9.53161 188.978 8.76894 189.257 8.07961C189.55 7.39028 189.946 6.80361 190.445 6.31961C190.943 5.83561 191.523 5.46161 192.183 5.19761C192.857 4.91894 193.576 4.77961 194.339 4.77961C195.277 4.77961 196.084 4.94828 196.759 5.28561C197.433 5.60828 197.991 6.02628 198.431 6.53961C198.871 7.03828 199.193 7.59561 199.399 8.21161C199.604 8.81294 199.707 9.39961 199.707 9.97161V11.4456H191.699ZM194.317 7.28761C193.613 7.28761 193.041 7.47094 192.601 7.83761C192.161 8.18961 191.875 8.60028 191.743 9.06961H196.891C196.803 8.55628 196.524 8.13094 196.055 7.79361C195.6 7.45628 195.021 7.28761 194.317 7.28761Z" fill="white"/>
</svg>